<?xml version="1.0" standalone="no"?>
<!DOCTYPE svg PUBLIC "-//W3C//DTD SVG 20010904//EN"
 "http://www.w3.org/TR/2001/REC-SVG-20010904/DTD/svg10.dtd">
<svg version="1.0" xmlns="http://www.w3.org/2000/svg"
 width="900.000000pt" height="900.000000pt" viewBox="0 0 900.000000 900.000000"
 preserveAspectRatio="xMidYMid meet">
<metadata>
Created by potrace 1.10, written by Peter Selinger 2001-2011
</metadata>
<g transform="translate(0.000000,900.000000) scale(0.100000,-0.100000)"
fill="#000000" stroke="none">
<path d="M4435 6673 c-78 -18 -135 -65 -182 -148 l-28 -50 -3 -560 c-1 -308
-2 -570 -2 -581 0 -22 -1 -22 -282 -25 l-283 -4 -62 -38 c-86 -53 -161 -139
-216 -250 -73 -145 -106 -261 -87 -297 11 -20 15 -20 463 -18 l452 3 11 45 11
45 434 5 c373 4 439 7 469 21 46 22 73 49 107 106 28 48 28 49 31 253 3 143 7
207 15 212 7 4 93 8 193 8 162 0 183 2 197 18 14 15 17 42 17 153 0 167 -14
212 -82 274 -60 54 -124 75 -227 75 -116 0 -111 -5 -111 115 0 81 3 107 16
119 13 13 46 16 204 16 162 0 189 2 194 16 3 9 6 77 6 152 0 123 -3 142 -24
187 -26 54 -71 101 -126 131 -33 18 -66 19 -560 21 -289 0 -534 -1 -545 -4z
m759 -79 c20 -8 20 -27 1 -79 -12 -33 -14 -159 -15 -762 0 -839 6 -789 -94
-838 -66 -32 -116 -31 -165 6 -44 32 -67 76 -73 140 -10 88 -63 166 -148 216
-43 26 -53 27 -203 31 -142 4 -159 6 -165 23 -4 10 -5 276 -2 591 5 553 6 574
25 600 23 30 68 60 105 69 32 8 713 11 734 3z m297 -28 c47 -20 74 -53 88
-108 15 -62 14 -171 -1 -186 -8 -8 -57 -12 -154 -12 -163 0 -154 -6 -154 99 0
93 22 153 68 184 61 41 97 46 153 23z m40 -787 c44 -35 59 -81 59 -187 0 -70
-3 -83 -19 -92 -28 -15 -274 -13 -289 2 -18 18 -16 182 3 217 8 16 32 42 53
59 60 48 133 48 193 1z m-1231 -583 c0 -8 -18 -31 -39 -52 -43 -40 -85 -112
-96 -165 -4 -19 -11 -39 -16 -45 -5 -6 -11 -37 -15 -70 -4 -32 -11 -65 -17
-71 -13 -17 -697 -19 -714 -2 -12 12 13 84 70 198 41 83 136 180 197 203 63
23 630 27 630 4z m370 -3 c52 -36 81 -89 91 -166 4 -32 15 -67 24 -77 10 -11
15 -26 12 -35 -6 -13 -43 -15 -276 -15 -182 0 -272 4 -276 11 -16 25 64 174
119 222 12 9 44 31 71 47 44 26 59 30 130 30 60 0 87 -4 105 -17z"/>
<path d="M4557 6253 c-4 -3 -7 -24 -7 -45 l0 -38 203 2 202 3 3 34 c2 20 -2
37 -10 42 -15 10 -382 12 -391 2z"/>
<path d="M4558 5933 c-5 -6 -8 -29 -6 -50 l3 -38 170 -3 c94 -2 185 0 203 3
32 6 33 8 30 48 l-3 42 -193 5 c-142 4 -196 2 -204 -7z"/>
<path d="M4554 5616 c-3 -8 -4 -29 -2 -48 l3 -33 200 0 200 0 3 39 c2 24 -2
42 -10 47 -7 5 -98 9 -201 9 -152 0 -189 -3 -193 -14z"/>
<path d="M1328 3953 c-8 -10 -18 -27 -21 -38 -3 -11 -15 -45 -27 -75 -11 -30
-32 -84 -45 -120 -13 -36 -33 -90 -45 -120 -12 -30 -25 -66 -30 -80 -5 -14
-18 -50 -30 -80 -12 -30 -25 -66 -30 -80 -5 -14 -16 -44 -25 -68 -8 -24 -13
-48 -10 -53 7 -10 174 -13 199 -3 9 3 16 15 16 25 0 25 31 102 44 111 15 11
158 10 175 -1 7 -5 23 -37 35 -72 l21 -64 94 -3 c54 -2 99 2 104 7 7 7 5 23
-5 48 -29 71 -98 253 -129 343 -7 19 -18 49 -26 67 -7 17 -13 35 -13 41 0 5
-7 23 -15 38 -8 16 -15 36 -15 45 0 8 -7 24 -15 35 -8 10 -15 29 -15 40 0 12
-9 33 -21 48 -18 23 -27 26 -88 26 -52 0 -71 -4 -83 -17z m108 -289 c21 -77
33 -138 28 -146 -3 -5 -30 -8 -60 -8 -59 0 -63 5 -45 64 37 121 46 146 55 143
5 -2 15 -25 22 -53z"/>
<path d="M1825 3948 c-3 -13 -4 -178 -3 -368 l3 -345 100 0 100 0 3 105 c2 68
7 107 15 112 7 4 45 8 86 8 90 0 148 26 195 85 94 119 87 245 -19 351 -63 62
-112 74 -312 74 -160 0 -163 0 -168 -22z m338 -176 c24 -21 23 -93 -1 -115
-23 -21 -73 -31 -107 -23 -24 6 -25 10 -25 80 0 42 4 76 10 78 24 8 106 -5
123 -20z"/>
<path d="M2684 3962 c-11 -7 -37 -61 -54 -112 -5 -14 -18 -50 -30 -80 -12 -30
-25 -66 -30 -80 -5 -14 -18 -50 -30 -80 -12 -30 -25 -66 -30 -80 -5 -14 -18
-50 -30 -80 -12 -30 -25 -66 -30 -80 -5 -14 -18 -49 -29 -78 -15 -41 -17 -54
-7 -58 7 -3 55 -3 107 -2 l94 3 8 30 c5 17 18 49 28 73 l19 42 72 0 c97 0 117
-7 124 -39 3 -14 13 -45 21 -69 l16 -43 101 3 c114 3 111 -1 76 88 -12 30 -25
66 -30 80 -5 14 -18 50 -30 80 -47 122 -52 136 -57 160 -3 14 -12 34 -19 45
-8 11 -14 26 -14 33 0 8 -7 30 -16 50 -9 21 -22 52 -30 70 -8 18 -14 40 -14
49 0 8 -9 31 -21 49 -20 33 -22 34 -87 34 -37 0 -72 -4 -78 -8z m106 -327 c20
-78 24 -117 11 -124 -6 -4 -32 -4 -58 -1 -34 4 -48 9 -46 20 3 38 36 147 51
170 18 28 19 26 42 -65z"/>
<path d="M3417 3963 c-4 -3 -7 -170 -7 -370 l0 -365 188 4 c217 4 261 16 349
93 76 67 113 156 113 271 -2 202 -110 335 -297 363 -78 12 -336 15 -346 4z
m348 -191 c40 -20 52 -34 75 -84 38 -83 17 -185 -49 -241 -39 -33 -62 -39
-127 -35 l-49 3 -3 177 c-3 206 -2 209 75 200 26 -2 61 -11 78 -20z"/>
<path d="M4817 3944 c-4 -4 -7 -42 -7 -84 l0 -76 -32 -9 c-29 -9 -33 -15 -36
-49 -5 -60 5 -86 38 -98 17 -5 30 -15 30 -21 0 -7 1 -76 3 -154 3 -142 3 -142
33 -180 37 -46 80 -57 179 -48 125 12 144 36 109 139 -16 47 -17 48 -52 42
-64 -10 -72 2 -72 113 0 109 1 111 65 111 38 0 45 12 45 80 0 55 -11 67 -65
72 l-40 3 -5 80 -5 80 -90 3 c-50 1 -94 0 -98 -4z"/>
<path d="M6497 3944 c-4 -4 -7 -40 -7 -81 l0 -73 -36 -15 c-35 -14 -35 -14
-32 -72 3 -55 5 -59 36 -72 l32 -15 0 -130 c0 -152 9 -191 51 -232 29 -28 34
-29 122 -28 62 0 104 6 131 17 38 17 38 18 34 60 -3 24 -11 56 -19 73 -13 25
-20 29 -56 29 -23 0 -46 5 -52 10 -5 6 -11 52 -12 103 -3 105 1 112 62 112 43
0 49 10 49 80 0 56 -15 70 -74 70 -30 0 -36 3 -37 23 0 12 -1 49 -2 82 l-2 60
-90 3 c-50 1 -94 0 -98 -4z"/>
<path d="M4325 3776 c-112 -28 -171 -85 -202 -196 -26 -96 -5 -192 58 -264 60
-68 113 -88 231 -88 90 0 102 3 156 32 58 31 107 81 100 102 -4 11 -110 48
-139 48 -9 0 -22 -7 -29 -14 -17 -21 -77 -39 -106 -32 -30 8 -64 40 -64 61 0
13 27 15 180 15 l180 0 10 26 c13 32 2 116 -19 164 -35 76 -106 129 -199 149
-64 13 -92 13 -157 -3z m138 -152 c48 -44 34 -59 -57 -59 -92 0 -102 10 -58
55 38 38 77 39 115 4z"/>
<path d="M5393 3775 c-100 -24 -171 -98 -197 -205 -19 -81 -15 -120 21 -197
26 -56 77 -103 139 -129 60 -25 220 -22 273 6 48 24 124 96 119 112 -2 6 -26
17 -54 25 -92 27 -104 27 -125 5 -24 -27 -81 -38 -117 -23 -32 13 -58 49 -45
62 5 5 89 10 188 11 l180 3 3 60 c7 131 -76 240 -206 271 -69 16 -110 16 -179
-1z m149 -155 c44 -45 34 -55 -60 -58 -77 -3 -82 -2 -82 18 0 12 11 32 25 45
34 35 78 33 117 -5z"/>
<path d="M6035 3776 c-62 -15 -85 -28 -128 -69 -109 -103 -116 -285 -14 -391
68 -71 113 -88 228 -88 88 0 104 3 149 28 53 29 114 88 108 106 -4 10 -88 41
-145 53 -21 4 -42 1 -62 -9 -42 -22 -69 -20 -107 9 -57 44 -58 124 -2 177 33
31 73 36 104 13 24 -18 63 -19 111 -1 21 8 50 17 66 20 40 9 36 46 -8 85 -48
42 -81 57 -150 70 -71 13 -85 13 -150 -3z"/>
<path d="M7073 3775 c-128 -31 -223 -162 -210 -290 10 -100 72 -190 161 -237
30 -15 58 -20 135 -20 113 0 164 18 222 79 59 61 79 111 79 195 0 146 -85 249
-228 278 -65 12 -92 12 -159 -5z m138 -172 c35 -21 53 -76 43 -130 -12 -64
-67 -97 -125 -73 -38 16 -59 56 -59 113 0 36 6 51 29 76 33 36 68 40 112 14z"/>
<path d="M7840 3778 c-19 -5 -51 -23 -71 -39 -46 -36 -59 -37 -59 0 0 35 -13
41 -89 41 -96 0 -92 14 -89 -285 l3 -260 98 -3 97 -3 0 159 c0 152 1 159 23
179 12 11 49 25 81 32 33 6 63 17 68 24 12 19 9 142 -4 155 -14 14 -11 14 -58
0z"/>
</g>
</svg>
